<svg xmlns="http://www.w3.org/2000/svg" width="34.813" height="34.94" viewBox="0 0 34.813 34.94">
  <defs>
    <style>
      .cls-1 {
        fill: #fff;
        fill-rule: evenodd;
      }
    </style>
  </defs>
  <path id="Magic_wand" data-name="Magic wand" class="cls-1" d="M656.95,2106.09c-0.055,0-.111-0.01-0.167-0.01a1.117,1.117,0,0,1-.852-0.71l-2.158-5.96-5.931-2.14a1.111,1.111,0,0,1-.706-0.86,1.09,1.09,0,0,1,.4-1.03l4.963-3.91,0.187-6.35a1.106,1.106,0,0,1,.59-0.94,1.086,1.086,0,0,1,1.1.07l5.227,3.54,6.048-1.77a1.059,1.059,0,0,1,1.069.27,1.1,1.1,0,0,1,.278,1.08l-1.733,6.1,3.482,5.24a1.1,1.1,0,0,1,.072,1.11,1.089,1.089,0,0,1-.929.6l-6.231.22-3.855,5.02A1.086,1.086,0,0,1,656.95,2106.09Zm-6.527-10.21,4.56,1.64a1.084,1.084,0,0,1,.653.66l1.659,4.58,2.963-3.86a1.065,1.065,0,0,1,.82-0.42l4.841-.17-2.729-4.04a1.087,1.087,0,0,1-.147-0.91l1.333-4.69-4.65,1.37a1.091,1.091,0,0,1-.91-0.15l-4.018-2.72-0.143,4.88a1.092,1.092,0,0,1-.417.82ZM635.19,2119a1.09,1.09,0,0,1-.767-1.86l17.982-18.12a1.09,1.09,0,0,1,1.533,0,1.105,1.105,0,0,1,0,1.55l-17.982,18.11A1.089,1.089,0,0,1,635.19,2119Z" transform="translate(-634.125 -2084.06)"/>
</svg>
