<svg xmlns="http://www.w3.org/2000/svg" width="42" height="34" viewBox="0 0 42 34">
  <defs>
    <style>
      .cls-1 {
        fill: #fff;
        fill-rule: evenodd;
      }
    </style>
  </defs>
  <path id="Monitor" class="cls-1" d="M374.375,2087.61v22.23h-36.75v-22.23h36.75m0-2.61h-36.75a2.629,2.629,0,0,0-2.625,2.61v22.23a2.631,2.631,0,0,0,2.625,2.62h36.75a2.631,2.631,0,0,0,2.625-2.62v-22.23a2.629,2.629,0,0,0-2.625-2.61h0Zm-17.063,26.16v5.23h6.563a1.305,1.305,0,1,1,0,2.61h-15.75a1.305,1.305,0,1,1,0-2.61h6.563v-5.23h2.624Z" transform="translate(-335 -2085)"/>
</svg>
