<svg xmlns="http://www.w3.org/2000/svg" width="35" height="35" viewBox="0 0 35 35">
  <defs>
    <style>
      .cls-1 {
        fill: #fff;
        fill-rule: evenodd;
      }
    </style>
  </defs>
  <path id="params" class="cls-1" d="M939.75,2090.59v-3.31a3.282,3.282,0,0,0-6.563,0v3.31a5.42,5.42,0,0,0,0,8.7v16.43a3.282,3.282,0,0,0,6.563,0v-16.43A5.42,5.42,0,0,0,939.75,2090.59Zm-4.375-3.31a1.094,1.094,0,0,1,2.187,0v2.3a5.49,5.49,0,0,0-2.187,0v-2.3Zm2.187,28.44a1.094,1.094,0,0,1-2.187,0v-15.43a5.042,5.042,0,0,0,2.187,0v15.43Zm2.041-19.86c-0.018.05-.034,0.11-0.054,0.17a3.093,3.093,0,0,1-.413.8,0.034,0.034,0,0,1-.015.02,3.468,3.468,0,0,1-.674.69s-0.008,0-.011.01a3.8,3.8,0,0,1-.874.47,3.089,3.089,0,0,1-2.187,0,3.82,3.82,0,0,1-.874-0.47c0-.01-0.006-0.01-0.01-0.01a3.441,3.441,0,0,1-.674-0.69,0.031,0.031,0,0,1-.015-0.02,3.1,3.1,0,0,1-.414-0.8c-0.02-.06-0.036-0.12-0.053-0.17a3.231,3.231,0,0,1-.148-0.92,3.121,3.121,0,0,1,.148-0.92c0.017-.06.033-0.12,0.053-0.17a3.159,3.159,0,0,1,.414-0.81c0-.01.01-0.01,0.015-0.02a3.15,3.15,0,0,1,.674-0.68c0-.01.007-0.01,0.01-0.01a3.179,3.179,0,0,1,.874-0.47,3.089,3.089,0,0,1,2.187,0,3.165,3.165,0,0,1,.874.47s0.007,0,.011.01a3.173,3.173,0,0,1,.674.68c0,0.01.011,0.01,0.015,0.02a3.157,3.157,0,0,1,.413.81c0.02,0.05.036,0.11,0.054,0.17a3.153,3.153,0,0,1,.147.92A3.265,3.265,0,0,1,939.6,2095.86Zm24.209-5.27v-3.31a3.281,3.281,0,0,0-6.562,0v3.31a5.418,5.418,0,0,0,0,8.7v16.43a3.281,3.281,0,0,0,6.562,0v-16.43A5.418,5.418,0,0,0,963.812,2090.59Zm-4.375-3.31a1.094,1.094,0,0,1,2.188,0v2.3a5.5,5.5,0,0,0-2.188,0v-2.3Zm2.188,28.44a1.094,1.094,0,0,1-2.188,0v-15.43a5.047,5.047,0,0,0,2.188,0v15.43Zm2.04-19.86c-0.017.05-.033,0.11-0.053,0.17a3.1,3.1,0,0,1-.414.8,0.031,0.031,0,0,1-.015.02,3.441,3.441,0,0,1-.674.69s-0.007,0-.01.01a3.82,3.82,0,0,1-.874.47,3.092,3.092,0,0,1-2.188,0,3.813,3.813,0,0,1-.873-0.47c0-.01-0.007-0.01-0.011-0.01a3.468,3.468,0,0,1-.674-0.69,0.034,0.034,0,0,1-.015-0.02,3.093,3.093,0,0,1-.413-0.8c-0.021-.06-0.036-0.12-0.054-0.17a3.265,3.265,0,0,1-.147-0.92,3.153,3.153,0,0,1,.147-0.92c0.018-.06.033-0.12,0.054-0.17a3.157,3.157,0,0,1,.413-0.81c0-.01.011-0.01,0.015-0.02a3.173,3.173,0,0,1,.674-0.68c0-.01.008-0.01,0.011-0.01a3.173,3.173,0,0,1,.873-0.47,3.092,3.092,0,0,1,2.188,0,3.179,3.179,0,0,1,.874.47s0.006,0,.01.01a3.15,3.15,0,0,1,.674.68c0,0.01.011,0.01,0.015,0.02a3.159,3.159,0,0,1,.414.81c0.02,0.05.036,0.11,0.053,0.17a3.12,3.12,0,0,1,.147.92A3.23,3.23,0,0,1,963.665,2095.86Zm-11.884,7.85v-16.43a3.281,3.281,0,0,0-6.562,0v16.43a5.418,5.418,0,0,0,0,8.7v3.31a3.281,3.281,0,0,0,6.562,0v-3.31A5.418,5.418,0,0,0,951.781,2103.71Zm-4.375-16.43a1.094,1.094,0,0,1,2.188,0v15.42a5.5,5.5,0,0,0-2.188,0v-15.42Zm2.188,28.44a1.094,1.094,0,0,1-2.188,0v-2.3a5.5,5.5,0,0,0,2.188,0v2.3Zm2.04-6.74a1.55,1.55,0,0,1-.054.17,3.157,3.157,0,0,1-.413.81c0,0.01-.011.01-0.015,0.02a3.173,3.173,0,0,1-.674.68c0,0.01-.007.01-0.011,0.01a3.159,3.159,0,0,1-.873.47,3.092,3.092,0,0,1-2.188,0,3.159,3.159,0,0,1-.873-0.47s-0.007,0-.011-0.01a3.15,3.15,0,0,1-.674-0.68c0-.01-0.011-0.01-0.015-0.02a3.157,3.157,0,0,1-.413-0.81,1.55,1.55,0,0,1-.054-0.17,2.952,2.952,0,0,1,0-1.84c0.017-.06.033-0.11,0.054-0.17a3.327,3.327,0,0,1,.413-0.81s0.011-.01.015-0.01a3.2,3.2,0,0,1,.674-0.69s0.007-.01.011-0.01a3.793,3.793,0,0,1,.873-0.47,3.092,3.092,0,0,1,2.188,0,3.793,3.793,0,0,1,.873.47s0.007,0.01.011,0.01a3.221,3.221,0,0,1,.674.69s0.011,0.01.015,0.01a3.327,3.327,0,0,1,.413.81c0.021,0.06.037,0.11,0.054,0.17A2.952,2.952,0,0,1,951.634,2108.98Z" transform="translate(-931 -2084)"/>
</svg>
